<svg xmlns="http://www.w3.org/2000/svg" viewBox="0 0 546 359">
	<symbol id="market-force-mark" viewBox="0 0 546 359">
		<g transform="translate(0 359) scale(.1 -.1)" fill="currentColor">
			<path d="M4670 3251c-190-48-441-110-558-137-116-27-212-51-212-54s63-27 140-53c77-27 140-53 140-57s-7-10-15-14c-17-6-396-243-1035-646-256-161-548-346-650-410s-267-169-368-233l-183-116-237 178c-130 97-370 276-532 396-162 120-368 274-457 342-90 68-165 122-168 121-4-2-6-514-6-1138l1-1135 196-3 197-2-5 755c-3 415-3 755 0 755 2 0 131-93 286-207 154-114 376-277 491-362 116-84 216-158 222-163 9-7 27 1 60 25 54 38 500 326 903 582 146 93 387 245 535 340 149 94 331 210 405 257 74 46 245 155 380 240 135 86 268 169 296 186l52 30 52-149c29-82 55-149 60-149 4 0 28 48 53 108 25 59 94 217 153 352 199 459 196 450 171 449-12 0-177-40-367-88z" />
			<path d="M4097 1993l-268-3-87-58c-48-32-139-91-202-131-63-40-153-97-199-127l-85-54h706 706l96 185c53 101 96 187 96 190 0 5-114 4-763-2z" />
			<path d="M2933 1412c-117-75-184-124-187-137-2-11-4-237-5-502l-1-483h195 195v295 295h579 579l96 185c53 102 96 188 96 191s-304 4-675 2l-675-3v138c0 75-3 137-7 137-5-1-90-53-190-118z" />
		</g>
	</symbol>
	<use href="#market-force-mark" />
</svg>
